# xmcd CD database file
#
# Track frame offsets:
#	182
#	45275
#	68760
#	101635
#	129450
#	156340
#	186395
#	201177
#	232430
#	266102
#	298645
#
# Disc length: 4574 seconds
#
# Revision: 0
# Processed by: cddbd v1.5.1PL0 Copyright (c) Steve Scherf et al.
# Submitted via: CDex 1.51
#
DISCID=aa11dc0b
DTITLE=Eddie Bert - Live at Birdland
DYEAR=1992
DGENRE=Jazz
TTITLE0=Ow
TTITLE1=What Known?
TTITLE2=Blue Bossa
TTITLE3=How's Your Feeling
TTITLE4=Kansas City Five
TTITLE5=Bongo Bop
TTITLE6=Unforgettable Dreams
TTITLE7=Recado Bossa Nova
TTITLE8=Bronx Line
TTITLE9=Casa de Luz
TTITLE10=Parker's Mood
EXTD=YEAR: 1992
EXTT0=
EXTT1=
EXTT2=
EXTT3=
EXTT4=
EXTT5=
EXTT6=
EXTT7=
EXTT8=
EXTT9=
EXTT10=
PLAYORDER=
